<?xml version="1.0" standalone="no"?>
<!DOCTYPE svg PUBLIC "-//W3C//DTD SVG 20010904//EN"
 "http://www.w3.org/TR/2001/REC-SVG-20010904/DTD/svg10.dtd">
<svg version="1.0" xmlns="http://www.w3.org/2000/svg"
 width="649.000000pt" height="621.000000pt" viewBox="0 0 649.000000 621.000000"
 preserveAspectRatio="xMidYMid meet">
<metadata>
Created by potrace 1.16, written by Peter Selinger 2001-2019
</metadata>
<g transform="translate(0.000000,621.000000) scale(0.100000,-0.100000)"
fill="#000000" stroke="none">
<path d="M547 6003 c-8 -10 -101 -178 -206 -373 -206 -381 -215 -406 -170
-451 23 -23 34 -23 211 -3 l58 7 2 -2210 3 -2209 30 -59 c21 -41 46 -71 80
-97 98 -74 -120 -68 2482 -68 l2343 0 0 -109 c0 -94 3 -112 21 -135 40 -51 70
-41 309 105 451 275 450 275 450 327 0 58 -30 83 -294 242 -141 85 -280 170
-309 189 -72 46 -105 50 -145 16 l-32 -27 0 -134 0 -134 -1570 0 c-863 0
-1570 2 -1570 4 0 2 33 35 72 73 501 472 1445 1446 1903 1963 33 37 134 150
225 251 174 193 642 735 844 976 l119 143 93 -168 c51 -92 104 -176 118 -186
39 -29 92 -25 128 11 25 25 34 51 64 184 19 85 53 231 75 324 21 94 50 222 63
285 27 123 58 265 106 475 44 194 47 234 21 267 -35 44 -79 46 -180 8 -86 -32
-887 -339 -1161 -445 -147 -57 -183 -80 -194 -125 -4 -18 -2 -16 9 8 11 24 29
39 71 57 61 27 89 32 62 11 -10 -7 -16 -15 -13 -17 2 -3 -7 -6 -21 -7 -42 -3
-66 -21 -59 -43 4 -10 -1 -29 -9 -40 -12 -17 -13 -27 -4 -43 10 -19 10 -20 -5
-7 -10 7 -18 23 -18 35 -1 16 -2 17 -6 4 -10 -38 18 -56 226 -141 115 -48 214
-87 220 -87 22 0 55 42 -398 -510 -102 -124 -213 -256 -247 -295 -513 -579
-663 -748 -803 -900 -614 -671 -1444 -1502 -1960 -1963 l-114 -102 -341 2
-341 3 -2 325 -1 325 48 120 c168 420 323 758 468 1020 239 433 427 700 652
926 130 130 262 228 389 288 l64 30 41 -33 c162 -131 374 -138 548 -18 l43 30
85 -55 c139 -90 317 -288 489 -541 23 -35 48 -61 54 -59 7 2 45 43 85 90 l73
87 -85 119 c-163 227 -326 396 -498 517 l-76 54 3 78 c4 63 3 70 -5 37 -5 -22
-9 -59 -9 -82 -1 -41 1 -43 71 -90 89 -60 235 -189 309 -274 104 -120 269
-342 269 -362 0 -6 -3 -7 -7 -3 -4 3 -24 -10 -44 -30 -26 -25 -43 -35 -55 -30
-14 5 -15 4 -5 -8 7 -8 10 -21 6 -28 -3 -7 12 7 34 32 23 25 41 41 41 36 0 -5
-15 -25 -33 -45 -17 -20 -42 -49 -54 -66 -12 -16 -23 -28 -25 -25 -2 3 -26 39
-53 80 -169 254 -384 482 -528 559 l-45 24 -53 -35 c-62 -40 -117 -64 -126
-54 -3 3 0 6 8 6 8 0 10 3 4 8 -5 4 -22 32 -37 62 -15 30 -28 51 -28 47 0 -5
-7 -1 -16 7 -23 23 -37 20 -57 -15 -13 -24 -14 -30 -3 -26 10 4 12 0 9 -14 -3
-10 -8 -20 -12 -20 -58 -11 -118 1 -106 21 10 16 -12 12 -29 -6 -21 -21 -20
-23 9 -19 14 1 33 -3 42 -10 14 -11 15 -16 5 -28 -10 -12 -10 -16 0 -21 7 -3
-2 -4 -21 -1 -44 7 -131 49 -178 86 -42 34 -46 34 -160 -26 -123 -65 -225
-145 -363 -284 -72 -72 -134 -126 -145 -127 -41 -2 -45 -4 -45 -23 0 -31 18
-34 36 -6 9 14 19 23 22 20 3 -3 -6 -18 -20 -33 -14 -15 -49 -58 -77 -97 -29
-38 -58 -70 -64 -71 -7 0 -17 -2 -22 -2 -14 -3 -38 -59 -30 -71 3 -6 -20 -48
-52 -95 l-57 -86 -16 26 c-24 35 -61 59 -87 56 -20 -3 -27 5 -25 29 0 3 -8 10
-18 17 -15 9 -21 7 -34 -13 -9 -14 -12 -25 -6 -25 7 0 9 -15 6 -40 -3 -27 0
-44 10 -55 9 -8 17 -26 18 -40 l3 -24 -41 23 c-23 13 -51 23 -63 21 -13 -1
-23 1 -23 5 0 8 126 211 183 295 268 396 543 665 825 809 l107 55 0 95 c0 53
-3 88 -7 78 -4 -9 -7 -51 -7 -92 l-1 -76 -75 -37 c-399 -197 -748 -596 -1152
-1317 -77 -137 -263 -511 -263 -529 0 -6 -4 -11 -10 -11 -7 0 -10 496 -10
1468 l0 1469 88 -13 c122 -19 139 -18 167 11 42 41 34 69 -76 273 -56 103
-144 266 -196 362 -52 96 -101 181 -110 188 -25 18 -87 15 -106 -5z m5511
-529 c25 -29 27 -46 10 -111 l-11 -46 -18 22 c-10 12 -20 21 -23 19 -3 -2 -15
5 -26 15 -11 9 -25 17 -30 17 -12 0 -9 22 5 32 6 5 6 8 -2 8 -8 0 -11 11 -8
30 2 18 -1 30 -8 31 -7 0 -3 4 8 9 31 14 78 3 103 -26z m-201 -30 c-19 -16
-36 -23 -48 -19 -11 4 -19 2 -19 -5 0 -6 -4 -8 -10 -5 -5 3 -29 -3 -54 -13
-32 -15 -45 -27 -50 -48 -6 -22 -9 -25 -17 -13 -8 11 -10 10 -8 -6 2 -35 -1
-46 -11 -40 -5 3 -10 1 -10 -6 0 -7 -3 -9 -7 -6 -3 4 -12 -2 -20 -13 -18 -26
-37 -26 -30 0 5 20 -9 25 -53 21 -13 -2 -13 0 -1 8 8 5 19 8 25 7 6 -2 8 -1 3
1 -4 3 -5 9 -2 13 3 5 -6 3 -21 -5 -15 -7 -34 -11 -43 -7 -14 5 -14 4 -1 -13
14 -17 14 -18 -5 -8 -15 9 -26 8 -47 -3 -15 -8 -29 -14 -30 -13 -8 5 -47 -14
-43 -21 3 -4 -5 -6 -17 -2 -14 3 -19 2 -14 -6 4 -7 1 -12 -6 -13 -7 0 -29 -2
-48 -4 -52 -7 -31 3 220 99 124 48 259 100 300 116 92 36 103 37 67 4z m-637
-234 c-8 -5 -19 -10 -25 -10 -5 0 -3 5 5 10 8 5 20 10 25 10 6 0 3 -5 -5 -10z
m135 0 c-3 -5 -1 -10 6 -10 7 0 10 -3 6 -6 -9 -9 -28 6 -22 17 4 5 8 9 11 9 3
0 2 -4 -1 -10z m-230 -39 c-11 -10 -85 -32 -85 -25 0 6 63 32 80 33 8 1 10 -2
5 -8z m288 -29 c-3 -7 -9 -10 -12 -5 -3 4 -10 11 -15 15 -4 4 1 6 12 5 12 -1
18 -6 15 -15z m604 -4 c-3 -8 -6 -5 -6 6 -1 11 2 17 5 13 3 -3 4 -12 1 -19z
m-1047 -27 c0 -5 -7 -12 -16 -15 -10 -4 -14 -12 -10 -22 3 -8 -1 -23 -10 -31
-18 -18 -76 -22 -81 -6 -2 6 -20 9 -39 7 -48 -3 -40 2 58 42 91 36 98 38 98
25z m1037 -13 c-3 -8 -6 -5 -6 6 -1 11 2 17 5 13 3 -3 4 -12 1 -19z m-1249
-72 c-18 -18 -58 -30 -58 -18 0 6 12 15 28 20 38 15 45 14 30 -2z m-72 -197
c4 -6 11 -6 20 2 8 6 17 9 21 5 3 -3 1 -6 -5 -6 -7 0 -12 -7 -12 -15 0 -8 6
-15 13 -15 9 0 9 -2 0 -8 -9 -5 -1 -12 23 -21 19 -7 33 -15 31 -17 -2 -3 -29
5 -58 17 -30 11 -64 25 -77 30 -18 7 -20 11 -11 22 15 16 46 19 55 6z m305
-233 c-6 -7 -8 -22 -4 -31 4 -13 3 -16 -6 -11 -7 5 -21 0 -34 -11 -12 -10 -6
1 12 25 18 23 35 42 38 42 3 0 0 -6 -6 -14z m-2241 -746 c6 9 13 7 29 -9 11
-11 31 -21 44 -22 53 -2 -30 -17 -93 -17 -36 1 -53 3 -37 5 15 2 28 9 28 14 1
8 4 19 9 37 1 4 4 1 7 -7 4 -10 7 -10 13 -1z m-1129 -617 c-15 -28 -40 -59
-41 -50 0 8 41 67 47 67 2 0 -1 -8 -6 -17z m-504 -413 c1 -19 -2 -28 -8 -24
-6 3 -17 -2 -25 -12 -8 -11 -6 0 6 24 11 23 21 42 23 42 1 0 3 -14 4 -30z
m233 -20 c-6 -11 -13 -20 -16 -20 -2 0 0 9 6 20 6 11 13 20 16 20 2 0 0 -9 -6
-20z m-76 -140 c-10 -16 -20 -27 -22 -25 -5 5 26 55 34 55 3 0 -3 -13 -12 -30z
m-327 -152 c-14 -31 -30 -59 -37 -63 -14 -9 -15 -10 25 67 36 72 44 69 12 -4z
m-150 -590 c-1 -62 -3 -14 -3 107 0 121 2 172 3 113 2 -59 2 -158 0 -220z m0
-275 c-2 -21 -4 -4 -4 37 0 41 2 58 4 38 2 -21 2 -55 0 -75z"/>
<path d="M6021 5487 c2 -1 13 -9 24 -17 19 -14 19 -14 6 3 -7 9 -18 17 -24 17
-6 0 -8 -1 -6 -3z"/>
<path d="M2788 4653 c6 -2 18 -2 25 0 6 3 1 5 -13 5 -14 0 -19 -2 -12 -5z"/>
<path d="M2925 4606 c77 -44 136 -105 180 -186 20 -36 33 -54 30 -40 -21 79
-120 192 -206 235 -71 36 -74 30 -4 -9z"/>
<path d="M2453 4568 c-21 -18 -46 -42 -56 -53 -20 -23 -70 -115 -65 -120 2 -2
16 21 32 51 16 30 53 77 83 104 61 56 65 68 6 18z"/>
<path d="M2634 4441 c-123 -57 -176 -197 -120 -316 53 -114 176 -172 284 -134
22 7 36 7 51 -1 15 -8 21 -8 21 0 0 6 5 8 11 4 8 -5 8 -1 0 14 -8 16 -7 23 6
33 32 27 73 103 72 133 l-1 31 -7 -30 c-29 -119 -145 -197 -263 -179 -58 10
-128 62 -157 118 -53 103 -23 226 73 295 121 87 284 28 338 -121 18 -51 19
-51 14 -13 -7 50 -49 111 -104 149 -56 40 -154 47 -218 17z m231 -431 c-3 -5
-11 -10 -16 -10 -6 0 -7 5 -4 10 3 6 11 10 16 10 6 0 7 -4 4 -10z"/>
<path d="M3152 4300 c0 -14 2 -19 5 -12 2 6 2 18 0 25 -3 6 -5 1 -5 -13z"/>
<path d="M3633 3595 c-2 -19 1 -37 7 -40 5 -3 7 4 5 15 -4 23 5 26 24 8 11
-11 12 -9 3 8 -6 11 -17 26 -24 31 -10 9 -14 4 -15 -22z"/>
<path d="M1565 3230 c-3 -5 -1 -10 4 -10 6 0 11 5 11 10 0 6 -2 10 -4 10 -3 0
-8 -4 -11 -10z"/>
<path d="M1510 3144 c0 -14 -2 -15 -17 -3 -13 11 -13 8 2 -13 11 -15 23 -28
26 -28 11 0 19 29 13 45 -8 20 -24 19 -24 -1z"/>
<path d="M4180 2689 c-109 -34 -120 -39 -120 -64 0 -21 77 -155 216 -374 86
-136 277 -391 378 -504 180 -202 426 -377 528 -377 75 0 125 57 115 133 -7 50
-32 77 -114 118 -78 39 -252 187 -343 290 -174 196 -307 381 -475 657 -54 91
-89 138 -101 139 -11 1 -48 -7 -84 -18z m-43 -57 c-36 -37 -49 -61 -25 -46 7
4 8 3 4 -4 -4 -6 -2 -21 4 -32 6 -11 8 -20 6 -20 -8 0 -56 85 -56 98 0 9 66
36 100 41 2 1 -13 -16 -33 -37z m199 -44 c8 -16 12 -28 9 -28 -6 0 -55 77 -55
87 1 10 28 -25 46 -59z m-128 -182 c20 -34 20 -37 3 -16 -11 14 -29 43 -41 65
-26 50 3 12 38 -49z m227 18 c9 -15 12 -23 6 -20 -11 7 -35 46 -28 46 3 0 12
-12 22 -26z m-115 -195 c17 -28 27 -48 21 -45 -5 4 -23 29 -41 57 -17 28 -27
48 -21 45 5 -4 23 -29 41 -57z m81 -126 c13 -16 12 -17 -3 -4 -17 13 -22 21
-14 21 2 0 10 -8 17 -17z m30 -40 c13 -16 12 -17 -3 -4 -17 13 -22 21 -14 21
2 0 10 -8 17 -17z m807 -488 c4 -4 -11 0 -33 9 -22 10 -44 22 -50 27 -5 6 9 2
33 -9 23 -10 46 -22 50 -27z"/>
</g>
</svg>
